<!--?xml version="1.0" encoding="utf-8"?-->
<!-- Svg Vector Icons : http://www.onlinewebfonts.com/icon -->

<svg version="1.1" xmlns="http://www.w3.org/2000/svg" xmlns:xlink="http://www.w3.org/1999/xlink" x="0px" y="0px" viewBox="0 0 256 256" enable-background="new 0 0 256 256" xml:space="preserve">
<metadata> Svg Vector Icons : http://www.onlinewebfonts.com/icon </metadata>
<g><g><path fill="#f2f2f2" data-title="Layer 0" xs="0" d="M240.1,98.5L240.1,98.5h-47.2c-13,0-23.6-10.6-23.6-23.6V39.5l0,0c0-3.5,2.4-5.9,5.9-5.9c3.5,0,5.9,2.4,5.9,5.9l0,0v35.4c0,7.1,4.7,11.8,11.8,11.8h47.2l0,0c3.5,0,5.9,2.4,5.9,5.9S243.6,98.5,240.1,98.5z M80.8,222.4c-3.5,0-5.9-2.4-5.9-5.9l0,0v-35.4c0-7.1-4.7-11.8-11.8-11.8H15.9l0,0c-3.5,0-5.9-2.4-5.9-5.9c0-3.5,2.4-5.9,5.9-5.9l0,0h47.2c13,0,23.6,10.6,23.6,23.6v35.4l0,0C86.7,220,84.3,222.4,80.8,222.4z M63.1,98.5H15.9l0,0c-3.5,0-5.9-2.4-5.9-5.9s2.4-5.9,5.9-5.9l0,0h47.2c7.1,0,11.8-4.7,11.8-11.8V39.5l0,0c0-3.5,2.4-5.9,5.9-5.9s5.9,2.4,5.9,5.9l0,0v35.4C86.7,87.9,76.1,98.5,63.1,98.5z M192.9,157.5h47.2l0,0c3.5,0,5.9,2.4,5.9,5.9c0,3.5-2.4,5.9-5.9,5.9l0,0h-47.2c-7.1,0-11.8,4.7-11.8,11.8v35.4l0,0c0,3.5-2.4,5.9-5.9,5.9c-3.5,0-5.9-2.4-5.9-5.9l0,0v-35.4C169.3,168.1,179.9,157.5,192.9,157.5z"/></g></g>
</svg>